<?xml version="1.0" encoding="UTF-8"?>
<svg id="Layer_2" data-name="Layer 2" xmlns="http://www.w3.org/2000/svg" viewBox="0 0 102.95 180.26">
  <defs>
    <style>
      .cls-1 {
        fill: #214e34;
      }

      .cls-2 {
        fill: #ebe3d6;
      }
    </style>
  </defs>
  <g id="Layer_1-2" data-name="Layer 1">
    <g>
      <path class="cls-1" d="M2.69,57.43c-.72-11.23-.5-22.5-1.4-33.71-.13-1.6-.22-3.2-.21-4.81.02-3.94-1.71-10.49-.82-14.23.36-1.52,1.71-2.6,3.27-2.71,10.62-.79,20.87-3.17,31.28-1.2,4.29.81,8.64,1.32,12.99,1.63,15.03,1.08,29.9,4.14,44.92,4.46.21,0,.43,0,.64-.04,6.56-1.26,5.35,39.39,6.34,45.49-.13,0,.13,0,0,0,7.13,39.81.25,79.79.72,119.78.02,1.75-1.21,3.26-2.92,3.61-20.13,4.03-41.67,4.21-62.33,3.43-.79-.03-1.58-.06-2.36-.14-5.64-.52-25.54,4.44-24.67-2.29.17-1.33.36-2.66.43-4,1.84-34.42-3.99-72.45-5.43-105.24"/>
      <g>
        <g>
          <path class="cls-2" d="M45.63,112.21c-4.44,6.78-15.17,1.05-10.55-6.1,5.63-6.26,12.56-11.57,10.81-21.04,0-1.5.66-3.07,2.13-3.65,2.53-1.38,6.45,3.49,3.07,4.42-.77.37-1.81-.62-.88-1.16,1.19-.59-.6-2.5-1.47-1.67-1.71,1.95.18,5.46-1.09,7.91-.25,7.13-6.84,10.46-10.73,15.67-4.32,5.31,3.23,9.87,7.15,4.95,2.52-2.81-1.39-8.07-3.74-4.06.66-1.44,2.36-.05,1.31.92-1.57,2.02-3.92.14-2.86-1.99,2.71-4.12,8.31-.76,7.59,3.66,1.43-3.26,5.06-6.46,3.21-10.26-1.12-2.24-3.87.04-3.71,1.92,0,1.19,1.31,1.09,1.59.06.18-.45-.81-.66-.43-1.19,1.52-1.16,2.67,1.78,1.16,2.67-5.4,3.27-4.54-7.71.89-5.37,5.49,3.45.13,9.48-1.69,13.5-.8,1.58-.37,3.43-.98,5.01-1.7.15-.67-3.06-.8-4.21Z"/>
          <path class="cls-2" d="M32.9,100.69c2.56.6,5.94-3.14,2.95-4.42,1.89,3.1-4.32,3.76-3.44.34,3.21-6.15,9.75,2.66,3.72,5.11-4.67,2.64-11.41-3.04-7.12-7.55,2.77-3.43,7.5-3.13,10.83-5.42,3.44-1.22,2.8-15.51,6.11-12.55-1.63,4.64-.98,11.09-5.37,14.23-3.34,2.23-8.05,2.08-10.65,5.6-1.59,2.12.61,4.85,2.97,4.65ZM34.72,96.56c-.43.2-.63.48-.59.83.46-.08.61-.29.59-.83Z"/>
          <path class="cls-2" d="M49.02,140.67c-.47,3.05-6.35,3.32-5.67-.21.6-1.21,3.37-.17,1.9.89.01.04.03.08.04.12,2,.03,2.48-1.84,2.28-3.51-1.76.18-3.74-.3-4.42-2.11-.53-.68-2.38.02-2.42.97-.13.83,1.1.92.87,1.69-.75.93.3,2.06-.43,3-.46.84-2.21.19-1.55-.72.41-.57.16-1.4.11-2.01-.88.55-2.27.29-2.91,1.06-.23.42-.35.42-.79.27-.49-.1-.87-.51-.73-1.03.42-1.57,2.32-.81,3.32-1.76.21-1.56,1.23-3.21,3-3.17,1.19-.14,2.78-.11,3.16,1.37.09,1.23,1.93,1.04,2.61.45,2.64-2.48,4.72-6.92,3.98-10.76-.23-.67.1-1.94,1.03-1.34.88.94.59,2.56.84,3.76-.13,2.74-1.23,5.5-2.82,7.71-1.03,1.09-2.02,3.56-.02,4.16.55.14,1.13-.55.62-.97-.25-.3-.17-.57.2-.71,1.8-.62,2.18,2.14.74,2.78-.93.54-1.9.3-2.93.07Z"/>
          <path class="cls-2" d="M51.12,94.09c1.2-1.2,3.24.43,2.19,1.83-2.1,2.43-5.38-1.25-3.57-3.5,3.83-3.93,7.93,2.26,7.15,6.12-.86,8.14-11.91,14.75-5.29,23.28.1.18.17.43.14.62-2.93.38-3.6-4.97-3.87-7.24-.3-7.66,9.79-12.35,6.76-20.38-.2-1.91-3.57-3.45-3.51-.73Z"/>
          <path class="cls-2" d="M66.08,95.91c.19-.36.1-1.08.6-.92,1.55.26.92,1.7.07,2.45-.91.62-1.93-.41-2.25-1.22-.32-6.04,7.51-3.87,6.99,1.26-.07,4.85-6.38,6.03-9.07,2.43-3.53-7.34-.3-16.8-7.28-22.88-.57-3.11,3.18,1.73,3.62,2.54,5.65,4.48-.31,24.14,9.87,20.4,3.86-2.56-1.62-9.65-2.55-4.05Z"/>
          <path class="cls-2" d="M51.15,51.81c4.08.39.45,5.59-2.06,2.1-1.57-6.67,7.29-4.58,6.73,1.39.93,7.73-8.54,12.7-6.05,20.49,0,1.2-1.12.37-1.34-.29-3.62-7.92,7.39-13.69,5.42-21.66-.17-1.24-1.3-3.53-2.74-2.13.02.04.03.07.05.11Z"/>
          <path class="cls-2" d="M68.88,118.03c-.68.15-1.78-.61-1.12-1.24.41-.44,1.07.06,1.54-.32,1.5-1.74-2.18-1.43-1.93.38.23,4.38,8.04,3.15,6.88-1.15-1.52-7.13-11.03-2.46-14.13-12.24-.24-1-1.53-3.51.46-3,.71,1.58.96,3.67,2.22,5.12,2.15,3.56,6.15,3.83,9.61,5.2,5.75,3.34,3.25,12.39-3.72,9.94-2.66-1.01-4.23-4.86-1.42-6.61,3.31-1.87,5.78,3.38,1.61,3.94,0-.03,0,.03,0,0Z"/>
          <path class="cls-2" d="M66.11,137.8c-.57,1.46-3.31.87-2.02-.28.35-.18.58-.46.48-.66-.32-.52-1.03-.21-1.36.12-1.58,1.33-4.46.94-5.55-.87-.45.93-3.12,5.21-.63,4.45.37-.42-.07-1.17.3-1.52,1.14-.44,2.13,1.8,1.16,2.39-1.13,1.1-3.44.86-3.98-.74-.86-2.41,1.51-4.85,2.4-7.02,1.67-3.35.54-7.19.18-10.72-.15-.92-.41-3.59,1.09-2.28.7,1.73.72,3.85,1,5.72,1,3.08-.64,6.47-.02,9.37,2.16,1.81,4.37-2.24,6.52.16.7.05,1,.64,1.58,1.04.69.47,1.49-.26,2.16.21,1.06,1.85-2.44,1.5-3.31.64Z"/>
          <path class="cls-2" d="M35.94,80.8c2.33,1.61-2.36,2.69-2.45.42.09-4.19,7.28-1.51,5.72,2.13-1.64,4.79-10.21,2.9-9.41-2.1.79-5.61,7.31-5.49,11.56-6.47,1.46-.27,3.11-3.93,3.76-1.03-2.27,4.71-9,1.79-12.22,5.54-3.62,3.17.89,7.74,4.16,4.33,1.14-.89.53-3.63-1.12-2.82Z"/>
          <path class="cls-2" d="M66.5,83.28c.67.23,1.6.25.86-.58-3.63-.32-.92,5.5,2.19,4.22,3.52-.56,1.96-5.46-.25-6.84-2.66-2.7-9.99-2.85-10.05-7.14.28-.39,1.23-.24,1.35.25,2.82,3.57,8.61,3.4,11.41,7.32,3.81,4.41-.61,10.12-5.78,7.43-2.66-1.17-3.71-6.15-.21-6.8,1.48-.34,2.99.4,3.41,1.89.67,2.08-4.36,2.74-2.93.24Z"/>
          <path class="cls-2" d="M34.38,56.29c-1.97,1.71.19,4.35,2,5.17.98.84,2.91.17,3.36,1.54-1.42,2.41-7.08-1.97-7.54-4.18-1.28-1.64,1.22-6.09,2.55-2.96,1.54-3.1,7.59-1.5,5.32,1.7-1.24.77-3.3-1.11-1.46-1.77-1.07-1.31-3.24,1.5-2.16,2.62,3.19,3.42,9.66-.07,8.68-4.74.28-1.16,1.98-.34,1.71.64,1.35,7.34-12.79,10-12.46,1.98Z"/>
          <path class="cls-2" d="M57.08,114.31c-1.41-4.71-4.47,1.75-3.02,4.21,2.15,4.9,4.94,12.54.53,16.68-.35-.17-.98-.22-.71-.77,1.59-3.5,2.14-7.61.44-11.18-1.42-3.38-4.21-8.47-.54-11.34,1.59-.98,3.81-.59,4.68,1.18,2.5,3.26-2.71,6.14-3.93,2.41-.2-1.38,1.58-2.29,2.54-1.19Z"/>
          <path class="cls-2" d="M54.34,71.51c-7.88,6.82,7.71,16.22,4.04,23.15-1.46-.12-.8-2.31-1.23-3.34-1.28-6.02-7.66-10.33-6.73-16.89.17-4.22,6.3-6.61,7.32-1.51-.17,1.35-2.27,2.15-3.35,1.21-.72-.58.15-1.72-.05-2.62Z"/>
          <path class="cls-2" d="M60.25,65.13c2.4.85-.42,3.39-1.65,1.77-1.84-2.76,2.33-4.97,4.32-2.9,4.22,4.25-3,9.74-6.42,5.13-3.75-5.16,3.68-11.05-.14-16.26.36-.77,1.51.15,1.81.66,3.2,4.66-2.4,9.63-.59,14.42,1.61,3.89,6.88-.08,4.23-3.02-.39-.46-1.66-.76-1.56.19Z"/>
          <path class="cls-2" d="M42.38,66.04c3.86-1.24,4.82,4.78.63,4.49-1.95.14-4.21-1.57-3.6-3.67.83-3.37,5.36-3.26,7.05-5.92,1.5-1.66.17-4.65,1.1-6.04,1.76-.54,1.45,4.72.87,5.79.12,3.59-11.01,5.56-6.16,8.6.96.05,2.62-.88,1.65-1.86-.5-.13-.17.76-.53.92-1.19.05-2.09-1.29-1.01-2.31Z"/>
          <path class="cls-2" d="M36.82,121.05c1.06,2.59-2.9,1.64-2.14-.41,2-2.59,5.74-.18,4.08,2.7-2.03,2.76-9.19,1.12-7.55-2.79,2.22-4.33,7.29-1.86,10.77-3.42.69-.78,2.93-2.21,2.32-.08-2.7,4.34-9.52-.39-11.73,4.53-.27,2.21,4.16,2.14,4.97.68.12-.59.35-1.75-.72-1.21Z"/>
          <path class="cls-2" d="M30.72,109.46c.05,1.87-2.43,3.32-2.74.84.08-.56.59-.88,1.12-.92-.01-.34.17-.89-.34-.9-5.69,1.57,1.11,7.9,3.3,3.36.44-2.43-.89-4.85.29-7.22.71-2.67,3.25-1.76,1.26.69-1.23,2.29.53,4.7-.16,7.02-1.31,4.59-10.01,1.68-8.16-2.83.79-2.57,5.43-3.58,5.33-.06.03,0,.07,0,.1.01Z"/>
          <path class="cls-2" d="M65.33,62.31c2.42.09,1.66-4.78-.3-3.72-.38.7.77.9.56,1.56-2.12,1.88-3.49-3.05-.87-3.05,5.72-.62,4.55,8.63-.99,6.17-4.24-1.52-2.76-6.55-4.64-9.57-.62-.95-.19-1.2.81-1.05,3.14,2.28.8,8.85,5.43,9.65Z"/>
          <path class="cls-2" d="M36.91,73.23c1.25-.3,2.45-.81,3.64-1.28.57-.01,1.48.98.64,1.34-2.5,1.49-5.5,1.13-8.04,2.49-3.67,1.36-5.71,6.3-2.32,9.03-.7,2.1-3.61-2.09-3.21-3.45-.43-5.05,5.02-7.55,9.3-8.14.01.05-.01-.05,0,0Z"/>
          <path class="cls-2" d="M76.32,84.43c-.12.75-.09,1.5-.25,2.24-.28,1.04-2.56,1.06-1.54-.32,1.43-6.91-7.68-9.35-11.93-12.64-.67-.88.71-1.39,1.19-.64.59.52,1.54.71,2.25,1.1,4.03,2.39,9.87,5.03,10.28,10.25.04,0-.04,0,0,0Z"/>
          <path class="cls-2" d="M77.91,116.03c.16,2.4-2.26,3.48-1.41.3-.7-5.89-7.21-7.36-11.38-9.99-.82-.82-4.25-4.21-2.19-4.75,1.51,1.19,2.05,3.77,4.21,4.61,4.62,1.67,9.82,4.5,10.78,9.83Z"/>
          <path class="cls-2" d="M55.64,41.81c-.23,2.59-1.81,4.71-2.65,6.93-2.93-.58.69-4.19.94-5.8,1.31-2.28-1.29-6.71-3.08-3.12-.2.59.28,1.71,1.03,1.47-.42-2.78,3.15.32.43,1.22-8.31-2.26,2.92-10.23,3.32-.69Z"/>
          <path class="cls-2" d="M59.07,105.67c-.09,1.58-2.78.73-1.31-.41-3.86,1.77,5.69,7.39,5.09,10.87.17.73.07,2.55-1.08,1.58.19-5.07-5.88-7.12-6.48-11.67-.15-2.52,3.6-3.08,3.77-.37Z"/>
          <path class="cls-2" d="M72.43,98.28c.12-2.14-1.46-3.87-1.92-5.78,2.13-1.64,4.76,7.52,2.84,9.18-.81,2.05-5.08,3.82-5.83,1.06,2.67.04,5.1-1.23,4.91-4.45Z"/>
          <path class="cls-2" d="M64.47,51.58c-.05.93-.67,2-1.7,2.07-.76.05-1.81-.73-.77-1.38,2.93-3.21-3.27-5.7-4.13-8.53-.68-3.36,2.17.25,2.66,1.35,1.89,1.73,4.03,3.68,3.94,6.48Z"/>
          <path class="cls-2" d="M42.55,49.25c.25-2.35,1.81-4.19,4-5.04.28-.22.58-.55.73-.89.78-1.31,1.99.93,1.22,1.67-2.14,1.77-5.44,3.25-3.99,6.67-.28,2.17-2.13-1.46-1.95-2.4Z"/>
          <path class="cls-2" d="M57.23,45.16c.05,1.64-1.05,5.18,1.32,5.26.41-.08.78-1.16.05-1.03-1.28.01-.81-1.81.3-1.48,1.92.46,1.97,3.34.02,3.82-4.83,1.4-3.51-11.56-1.69-6.58Z"/>
          <path class="cls-2" d="M71.13,59.75c.09,2.08-1.76,7.19-4.17,5.37,0-1.13,1.61-1.86,1.9-3.06,1.36-1.85.47-3.72-.63-5.38.6-2.38,3.01,2.1,2.91,3.07Z"/>
          <path class="cls-2" d="M46.58,50.25c.69-.78,1.62.28,1.14.96-1.62,1.63-3.68-1.21-2.3-2.64.84-1.16,2.6-.89,3.52-1.95.83-.55,1.45-2.97,2.55-1.43-.23,2.1-2.35,3.38-4.21,3.95-.39.15-.73.67-.7,1.12Z"/>
        </g>
        <g>
          <path class="cls-2" d="M23.18,23.73c.64.27,1.17.62,1.59,1.05s.71.87.86,1.34.2.94.15,1.42-.22.92-.52,1.31-.67.72-1.1.99-.99.43-1.65.48-1.38-.03-2.14-.23c-.02,0-.1-.02-.26-.05s-.26-.06-.31-.08-.15-.05-.3-.1-.25-.08-.33-.11-.17-.07-.3-.12-.22-.11-.29-.16-.14-.11-.22-.18-.15-.14-.2-.22-.09-.17-.11-.26c-.07-.55-.22-1.42-.45-2.63-.23-1.21-.39-2.19-.49-2.93-.1-.75-.11-1.62-.03-2.62.08-1,.31-1.88.7-2.64.69-.71,1.43-1.1,2.22-1.17.79-.07,1.48.12,2.07.57.59.45,1.08,1.02,1.47,1.7s.56,1.45.52,2.32c-.05.86-.34,1.64-.89,2.33ZM22.14,20.62c.05-.82-.27-1.42-.98-1.81-.71-.39-1.39-.36-2.04.1-.42.16-.65.94-.68,2.32-.04,1.38.05,2.78.26,4.2.21,1.42.41,2.37.61,2.86.73.65,1.95.73,3.68.22.38-.13.63-.39.75-.79s.13-.81.03-1.24-.25-.8-.45-1.13c-.11-.2-.28-.37-.5-.52s-.47-.26-.72-.35l-.76-.27c-.25-.09-.49-.21-.7-.37s-.37-.34-.48-.56c.11-.22.3-.42.56-.6.26-.18.5-.33.72-.45.22-.12.4-.31.55-.59s.2-.61.16-1.01Z"/>
          <path class="cls-2" d="M35.61,24.84c-2.27,0-3.59.06-3.97.18s-.54.52-.5,1.21c.07,1.29-.09,2.53-.49,3.71-.89.29-1.44-.26-1.66-1.66-.27-1.71-.09-4.03.55-6.95.2-.98.39-1.65.57-2.02.4-.85.85-1.49,1.36-1.91.51-.42,1-.62,1.49-.6.48.02.96.18,1.44.49.48.31.9.73,1.25,1.25.35.53.65,1.13.87,1.8.23.67.36,1.35.4,2.02.02.27.09.9.22,1.89.13.99.21,1.79.26,2.4s0,1.28-.15,2.02-.42,1.29-.82,1.65c-.38-.15-.66-.38-.85-.7s-.26-.67-.25-1.06.05-.82.1-1.28.1-.9.18-1.31.07-.79,0-1.13ZM35.55,22.94c-.15-1.05-.33-1.94-.56-2.64s-.49-1.2-.78-1.49c-.29-.28-.6-.36-.93-.23-.33.13-.66.51-1.01,1.16-.35.65-.68,1.52-1.01,2.63-.16.36.05.57.63.63.22.04,1.09,0,2.62-.08.53-.04.87-.03,1.04.03Z"/>
          <path class="cls-2" d="M43.21,19.07c-.2,2.16-.3,4.3-.3,6.41,0,.09,0,.27.01.55s.01.45.01.55c0,.11.12.18.37.2s.55.02.93-.01.77-.07,1.19-.1.8-.05,1.14-.08.6-.01.76.04c.98,0,1.66.29,2.04.87.25.4.3.83.14,1.29s-.5.72-1.01.78c-.31.04-1.01.18-2.1.44s-1.99.37-2.71.35-1.39-.24-2.03-.65c-.38-.6-.65-1.46-.82-2.59s-.21-2.31-.15-3.54c.06-1.24.17-2.41.31-3.53.15-1.12.32-2.08.52-2.88.4-.55.82-.5,1.25.14.4.55.56,1.09.49,1.64-.02.05-.04.1-.05.14ZM48.26,28.41l-5.7.33c.27.27,1.05.37,2.34.3s2.41-.28,3.35-.63Z"/>
          <path class="cls-2" d="M60.58,27.08c0,.89-.31,1.62-.94,2.19s-1.35.91-2.18,1.02-1.66.01-2.51-.29-1.46-.8-1.84-1.49c-.6-.65-.69-1.43-.27-2.32.36-.75.87-1.18,1.53-1.31s1.22.17,1.69.9c.22.51.09.9-.38,1.17s-.86.25-1.17-.08c-.15-.15-.24-.34-.27-.57-.55,1.02-.36,1.74.55,2.18.8.4,1.71.44,2.73.11,1.04-.35,1.57-.94,1.61-1.77l-.05-.63c-.15-.47-.46-.86-.95-1.16s-1.04-.54-1.64-.71-1.19-.36-1.77-.57-1.08-.54-1.5-.99c-.42-.45-.65-1.04-.68-1.74-.09-.56-.05-1.1.12-1.62s.44-.96.79-1.32c.35-.36.78-.66,1.28-.89.5-.23,1.01-.36,1.53-.4.52-.04,1.04.04,1.57.22.53.18.99.47,1.39.87,1.13.93,1.51,1.98,1.14,3.16-.25.8-.74,1.35-1.44,1.64-.76.35-1.35.15-1.77-.6-.18-.31-.3-.71-.35-1.2.11-.49.43-.81.95-.95.53-.13.87,0,1.04.41.07.2.08.44.03.71.35-.71.25-1.4-.27-2.07-.53-.67-1.17-.98-1.94-.93-.55.13-1.04.4-1.47.83-.44.43-.74.89-.9,1.38s-.13.98.11,1.46c.24.48.7.83,1.39,1.05.09.04.25.1.46.19.55.2.97.36,1.27.49s.69.32,1.16.59.83.52,1.08.78.46.58.65.98.28.83.26,1.28Z"/>
          <path class="cls-2" d="M70.66,24.84c-2.27,0-3.59.06-3.97.18s-.54.52-.5,1.21c.07,1.29-.09,2.53-.49,3.71-.89.29-1.44-.26-1.66-1.66-.27-1.71-.09-4.03.55-6.95.2-.98.39-1.65.57-2.02.4-.85.85-1.49,1.36-1.91.51-.42,1-.62,1.49-.6.48.02.96.18,1.44.49.48.31.9.73,1.25,1.25.35.53.65,1.13.87,1.8.23.67.36,1.35.4,2.02.02.27.09.9.22,1.89.13.99.21,1.79.26,2.4s0,1.28-.15,2.02-.42,1.29-.82,1.65c-.38-.15-.66-.38-.85-.7s-.26-.67-.25-1.06.05-.82.1-1.28.1-.9.18-1.31.07-.79,0-1.13ZM70.61,22.94c-.15-1.05-.33-1.94-.56-2.64s-.49-1.2-.78-1.49c-.29-.28-.6-.36-.93-.23-.33.13-.66.51-1.01,1.16-.35.65-.68,1.52-1.01,2.63-.16.36.05.57.63.63.22.04,1.09,0,2.62-.08.53-.04.87-.03,1.04.03Z"/>
          <path class="cls-2" d="M80.83,18.66c.27-.51.64-.87,1.1-1.08.46-.21.94-.28,1.43-.2.49.07.97.25,1.44.55.29.22.52.47.68.76.16.29.27.64.33,1.04.05.4.09.73.1.99,0,.26,0,.65-.03,1.16-.03.51-.05.84-.07.98-.05.31-.08,1.09-.08,2.34s-.05,2.38-.15,3.38c-.1,1-.3,1.56-.61,1.69-.31.07-.57.06-.78-.03s-.31-.31-.31-.65c0-.6.04-1.3.12-2.1s.17-1.54.27-2.24.17-1.4.22-2.14.01-1.46-.1-2.18c-.11-.72-.31-1.39-.6-2-1.13-.51-1.79.14-1.99,1.94-.07.65-.06,2.31.03,4.96.07,2.31-.11,3.62-.55,3.93-.18.11-.41.11-.68,0-.51-.2-.75-1.64-.74-4.33.02-2.98.02-4.65,0-5.02-.11-1.36-.38-2.05-.82-2.07-.15,0-.33.07-.55.22-.38.24-.66.64-.85,1.21s-.27,1.21-.27,1.91.03,1.45.08,2.25.11,1.57.18,2.32.09,1.41.08,2-.1,1.05-.29,1.39-.46.48-.85.42c-.47-.62-.75-1.75-.83-3.41s0-3.29.22-4.92c.23-1.63.51-2.85.86-3.67.31-.62.76-1.01,1.35-1.19.59-.17,1.15-.09,1.68.25.53.34.85.85.95,1.54Z"/>
        </g>
        <g>
          <path class="cls-2" d="M33.45,151.68c-.05.31-.34.56-.85.76-.45.18-.97.27-1.55.27h-.05c-.24,0-.58-.05-1.04-.14h-.03c-.16-.02-.33-.04-.49-.05-.16-.02-.34-.04-.52-.07s-.32-.05-.41-.07c-.07-.02-.44-.05-1.09-.11-.2,0-.35.05-.44.14-.16.24.05,1.17.63,2.81v.03c.13.13.28.19.46.19.29,0,.78-.15,1.47-.44.82-.31,1.37-.46,1.66-.46.4,0,.68.15.85.46.04.07.05.13.05.16.04.27,0,.51-.11.72-.11.21-.25.38-.42.5s-.4.24-.68.33-.51.15-.68.19-.39.07-.64.11c-.44.07-.85.17-1.25.3-.16.05-.35.08-.55.08-.07,0-.12,0-.14.03s-.05.07-.08.16c-.05.16-.08.68-.08,1.55.07,1.67-.25,2.89-.98,3.65-.16.18-.39.34-.67.46s-.55.19-.8.19c-.4,0-.8-.14-1.21-.41s-.7-.6-.86-.98c-.36-.87-.1-1.74.79-2.62.02,0,.04,0,.07-.03s.04-.04.04-.05c.2-.13.42-.19.65-.19.33,0,.58.13.76.4s.27.57.27.91c0,.29-.06.52-.18.7s-.28.26-.48.26c-.18,0-.35-.06-.52-.19-.02-.02-.04-.03-.05-.03-.05,0-.09,0-.11.03-.04.04-.05.06-.05.08v.03c.02.18.09.32.22.42s.26.15.41.15c.35,0,.65-.16.9-.49.44-.58.51-1.42.22-2.51v-.05c-.09-1.05-.35-2.49-.79-4.31-.18-.76-.3-1.33-.37-1.7-.06-.37-.09-.77-.07-1.2.02-.43.12-.76.3-.99.42-.49,1.23-.74,2.43-.74.93,0,2.22.14,3.87.41.29.05.5.1.63.14,1.09.33,1.61.73,1.55,1.2Z"/>
          <path class="cls-2" d="M43.35,157.97c-2.27,0-3.59.06-3.97.18s-.54.52-.5,1.21c.07,1.29-.09,2.53-.49,3.71-.89.29-1.44-.26-1.66-1.66-.27-1.71-.09-4.03.55-6.95.2-.98.39-1.65.57-2.02.4-.85.85-1.49,1.36-1.91.51-.42,1-.62,1.49-.6.48.02.96.18,1.44.49.48.31.9.73,1.25,1.25.35.53.65,1.13.87,1.8.23.67.36,1.35.4,2.02.02.27.09.9.22,1.89s.21,1.79.26,2.4,0,1.28-.15,2.02c-.15.74-.42,1.29-.82,1.65-.38-.15-.66-.38-.85-.7s-.26-.67-.25-1.06.05-.82.1-1.28.1-.9.18-1.31.07-.79,0-1.13ZM43.29,156.06c-.15-1.05-.33-1.94-.56-2.64s-.49-1.2-.78-1.49c-.29-.28-.6-.36-.93-.23-.33.13-.66.51-1.01,1.16-.35.65-.68,1.52-1.01,2.63-.16.36.05.57.63.63.22.04,1.09,0,2.62-.08.53-.04.87-.03,1.04.03Z"/>
          <path class="cls-2" d="M50.95,152.19c-.2,2.16-.3,4.3-.3,6.41,0,.09,0,.27.01.55s.01.45.01.55c0,.11.12.18.37.2s.55.02.93-.01.77-.07,1.19-.1.8-.05,1.14-.08.6-.01.76.04c.98,0,1.66.29,2.04.87.25.4.3.83.14,1.29s-.5.72-1.01.78c-.31.04-1.01.18-2.1.44s-1.99.37-2.71.35-1.39-.24-2.03-.65c-.38-.6-.65-1.46-.82-2.59s-.21-2.31-.15-3.54c.06-1.24.17-2.41.31-3.53.15-1.12.32-2.08.52-2.88.4-.55.82-.5,1.25.14.4.55.56,1.09.49,1.64-.02.05-.04.1-.05.14ZM55.99,161.54l-5.7.33c.27.27,1.05.37,2.34.3s2.41-.28,3.35-.63Z"/>
          <path class="cls-2" d="M62.78,152.19c-.2,2.16-.3,4.3-.3,6.41,0,.09,0,.27.01.55s.01.45.01.55c0,.11.12.18.37.2s.55.02.93-.01.77-.07,1.19-.1.8-.05,1.14-.08.6-.01.76.04c.98,0,1.66.29,2.04.87.25.4.3.83.14,1.29s-.5.72-1.01.78c-.31.04-1.01.18-2.1.44s-1.99.37-2.71.35-1.39-.24-2.03-.65c-.38-.6-.65-1.46-.82-2.59s-.21-2.31-.15-3.54c.06-1.24.17-2.41.31-3.53.15-1.12.32-2.08.52-2.88.4-.55.82-.5,1.25.14.4.55.56,1.09.49,1.64-.02.05-.04.1-.05.14ZM67.82,161.54l-5.7.33c.27.27,1.05.37,2.34.3s2.41-.28,3.35-.63Z"/>
          <path class="cls-2" d="M80.15,160.21c0,.89-.31,1.62-.94,2.19-.63.57-1.35.91-2.18,1.02s-1.66.01-2.51-.29-1.46-.8-1.84-1.49c-.6-.65-.69-1.43-.27-2.32.36-.75.87-1.18,1.53-1.31s1.22.17,1.69.9c.22.51.09.9-.38,1.17s-.86.25-1.17-.08c-.15-.15-.24-.34-.27-.57-.55,1.02-.36,1.74.55,2.18.8.4,1.71.44,2.73.11,1.04-.35,1.57-.94,1.61-1.77l-.05-.63c-.15-.47-.46-.86-.95-1.16s-1.04-.54-1.64-.71-1.19-.36-1.77-.57-1.08-.54-1.5-.99c-.42-.45-.65-1.04-.68-1.74-.09-.56-.05-1.1.12-1.62s.44-.96.79-1.32c.35-.36.78-.66,1.28-.89.5-.23,1.01-.36,1.53-.4.52-.04,1.04.04,1.57.22.53.18.99.47,1.39.87,1.13.93,1.51,1.98,1.14,3.16-.25.8-.74,1.35-1.44,1.64-.76.35-1.35.15-1.77-.6-.18-.31-.3-.71-.35-1.2.11-.49.43-.81.95-.95.53-.13.87,0,1.04.41.07.2.08.44.03.71.35-.71.25-1.4-.27-2.07-.53-.67-1.17-.98-1.94-.93-.55.13-1.04.4-1.47.83-.44.43-.74.89-.9,1.38s-.13.98.11,1.46c.24.48.7.83,1.39,1.05.09.04.25.1.46.19.55.2.97.36,1.27.49s.69.32,1.16.59.83.52,1.08.78.46.58.65.98.28.83.26,1.28Z"/>
        </g>
      </g>
    </g>
  </g>
</svg>